<?xml version="1.0" encoding="iso-8859-1"?>
<!-- Generator: Adobe Illustrator 19.0.0, SVG Export Plug-In . SVG Version: 6.00 Build 0)  -->
<svg version="1.1" id="Layer_1" xmlns="http://www.w3.org/2000/svg" xmlns:xlink="http://www.w3.org/1999/xlink" x="0px" y="0px"
	 viewBox="0 0 511.999 511.999" style="enable-background:new 0 0 511.999 511.999;" xml:space="preserve">
<polygon style="fill:#C2B8B9;" points="468.554,170.804 462.928,133.033 425.157,127.407 401.048,151.516 406.673,189.288 
	444.444,194.913 "/>
<path style="fill:#463836;" d="M178.106,409.82c-2.218,2.218-2.218,5.818,0,8.036c2.22,2.22,5.818,2.218,8.036,0l35.407-20.847
	l4.775-27.371l-27.371,4.775L178.106,409.82z"/>
<polygon style="fill:#F99D88;" points="228.735,323.83 198.953,374.412 221.549,397.009 272.131,367.226 266.507,329.455 "/>
<path style="fill:#F14742;" d="M495.074,144.284c11.964-11.964,11.965-31.432,0-43.397s-31.433-11.964-43.397,0l-26.521,26.521
	l43.397,43.397L495.074,144.284z"/>
<rect x="214.748" y="228.695" transform="matrix(-0.7071 0.7071 -0.7071 -0.7071 758.0005 204.7872)" style="fill:#FFD24D;" width="243.679" height="61.372"/>
<path d="M500.534,95.144c-15.287-15.287-40.162-15.288-55.452,0l-26.52,26.52l0,0l0,0l-24.107,24.107c0,0-0.001,0-0.001,0.001
	s-0.001,0.001-0.001,0.001L222.139,318.088c-0.239,0.239-0.457,0.492-0.661,0.751c-0.052,0.067-0.1,0.136-0.151,0.205
	c-0.155,0.208-0.299,0.421-0.433,0.639c-0.023,0.036-0.051,0.07-0.073,0.108l-50.202,85.263c-4.63,5.575-4.334,13.888,0.891,19.115
	c2.77,2.769,6.408,4.153,10.046,4.153c3.224,0,6.449-1.088,9.068-3.263l85.264-50.202c0.041-0.024,0.076-0.055,0.116-0.078
	c0.214-0.131,0.422-0.273,0.626-0.424c0.07-0.052,0.142-0.1,0.21-0.155c0.259-0.205,0.511-0.422,0.75-0.66l172.312-172.312h0.001
	c0.001-0.001,0.001-0.001,0.001-0.002l50.629-50.629C515.821,135.307,515.821,110.432,500.534,95.144z M443.877,183.143
	l-31.342-31.343l12.054-12.054l31.342,31.342L443.877,183.143z M271.564,355.455l-31.342-31.342L400.48,163.855l31.342,31.342
	L271.564,355.455z M222.342,386.599l-13.264-13.264l20.848-35.408l27.824,27.824L222.342,386.599z M190.086,405.592l10.058-17.083
	l7.025,7.025L190.086,405.592z M488.479,138.541l-20.493,20.493l-31.342-31.342l20.493-20.493c8.642-8.641,22.703-8.641,31.342,0
	c4.178,4.177,6.477,9.742,6.477,15.672C494.956,128.8,492.656,134.364,488.479,138.541z"/>
<path d="M124.067,405.03c-5.013,0-9.092,4.079-9.092,9.092s4.079,9.092,9.092,9.092c5.013,0,9.092-4.079,9.092-9.092
	S129.081,405.03,124.067,405.03z"/>
<path d="M66.58,405.03c-5.013,0-9.092,4.079-9.092,9.092s4.079,9.092,9.092,9.092s9.092-4.079,9.092-9.092
	S71.593,405.03,66.58,405.03z"/>
<path d="M9.092,405.03c-5.013,0-9.092,4.079-9.092,9.092s4.079,9.092,9.092,9.092s9.092-4.079,9.092-9.092
	S14.105,405.03,9.092,405.03z"/>
<g>
</g>
<g>
</g>
<g>
</g>
<g>
</g>
<g>
</g>
<g>
</g>
<g>
</g>
<g>
</g>
<g>
</g>
<g>
</g>
<g>
</g>
<g>
</g>
<g>
</g>
<g>
</g>
<g>
</g>
</svg>
