<?xml version="1.0" encoding="iso-8859-1"?>
<!-- Generator: Adobe Illustrator 19.0.0, SVG Export Plug-In . SVG Version: 6.00 Build 0)  -->
<svg version="1.1" id="Layer_1" xmlns="http://www.w3.org/2000/svg" xmlns:xlink="http://www.w3.org/1999/xlink" x="0px" y="0px"
	 viewBox="0 0 496.008 496.008" style="enable-background:new 0 0 496.008 496.008;" xml:space="preserve">
<g>
	<g>
		<g>
			<path d="M456.004,304h-65.312c5.192-10.24,9.344-20.912,12.208-32h29.104v-80h-29.112c-3.72-14.44-9.464-28.248-17.128-41.192
				l20.624-20.632L349.82,73.608l-20.632,20.624c-12.952-7.664-26.76-13.4-41.192-17.128V48h-79.992v29.112
				c-14.44,3.72-28.248,9.464-41.192,17.128L146.18,73.616l-56.568,56.568l20.624,20.632c-7.664,12.952-13.4,26.76-17.128,41.192
				H64.004v80h29.112c2.856,11.088,7.008,21.76,12.208,32h-65.32c-22.056,0-40,17.944-40,40v112c0,22.056,17.944,40,40,40h416
				c22.056,0,40-17.944,40-40V344C496.004,321.944,478.06,304,456.004,304z M80.004,256v-48h25.904l1.352-6.32
				c3.64-16.928,10.312-32.984,19.832-47.712l3.504-5.432l-18.36-18.36l33.944-33.944l18.36,18.36l5.432-3.504
				c14.728-9.52,30.784-16.192,47.712-19.832l6.32-1.352V64h48v25.904l6.32,1.352c16.928,3.64,32.984,10.312,47.712,19.832
				l5.432,3.504l18.36-18.36l33.944,33.944l-18.36,18.36l3.504,5.432c9.52,14.728,16.192,30.784,19.832,47.712L390.1,208h25.904v48
				H390.1l-1.352,6.32c-3.152,14.672-8.712,28.616-16.304,41.68H298.38c6.408-4.52,12.232-9.944,17.368-16.192
				c29.136-1.936,52.256-26.2,52.256-55.808c0-29.616-23.128-53.872-52.256-55.808C298.94,155.744,274.524,144,248.004,144
				c-26.52,0-50.936,11.744-67.744,32.192c-29.128,1.936-52.256,26.192-52.256,55.808c0,29.608,23.12,53.872,52.256,55.808
				c5.136,6.24,10.96,11.672,17.368,16.192h-74.064c-7.584-13.064-13.152-27.008-16.304-41.68l-1.352-6.32H80.004z M216.252,206.392
				L237.588,232l-21.336,25.6c-7.624,9.152-18.824,14.4-30.728,14.4h-1.52c-22.056,0-40-17.944-40-40c0-22.056,17.944-40,40-40h1.52
				C197.428,192,208.628,197.248,216.252,206.392z M200.476,178.112C213.508,166.52,230.172,160,248.004,160
				c17.832,0,34.496,6.52,47.528,18.104c-10.856,3.008-20.68,9.176-28.064,18.048l-19.464,23.352l-19.464-23.352
				C221.148,187.288,211.332,181.112,200.476,178.112z M228.54,267.848l19.464-23.352l19.464,23.352
				c7.392,8.864,17.208,15.032,28.064,18.04C282.492,297.48,265.828,304,248.004,304c-17.824,0-34.488-6.52-47.528-18.112
				C211.34,282.888,221.156,276.72,228.54,267.848z M279.756,257.6L258.42,232l21.336-25.608C287.38,197.248,298.58,192,310.484,192
				h1.52c22.056,0,40,17.944,40,40c0,22.056-17.944,40-40,40h-1.52C298.58,272,287.38,266.752,279.756,257.6z M480.004,456
				c0,13.232-10.768,24-24,24h-416c-13.232,0-24-10.768-24-24V344c0-13.232,10.768-24,24-24h416c13.232,0,24,10.768,24,24V456z"/>
			<polygon points="152.004,351.392 137.14,448 134.42,448 118.42,376 89.588,376 73.58,448 70.868,448 56.004,351.392 56.004,336 
				40.004,336 40.004,352 57.14,464 86.42,464 102.42,392 105.588,392 121.588,464 150.868,464 167.908,353.216 168.004,336 
				152.004,336 			"/>
			<polygon points="296.004,351.392 281.14,448 278.42,448 262.42,376 233.588,376 217.58,448 214.868,448 200.004,351.392 
				200.004,336 184.004,336 184.004,352 201.14,464 230.42,464 246.42,392 249.588,392 265.588,464 294.868,464 311.908,353.216 
				312.004,336 296.004,336 			"/>
			<polygon points="440.004,351.392 425.14,448 422.42,448 406.42,376 377.588,376 361.58,448 358.868,448 344.004,351.392 
				344.004,336 328.004,336 328.004,352 345.14,464 374.42,464 390.42,392 393.588,392 409.588,464 438.868,464 455.908,353.216 
				456.004,336 440.004,336 			"/>
			<rect x="464.004" width="16" height="16"/>
			<rect x="480.004" y="16" width="16" height="16"/>
			<rect x="464.004" y="32" width="16" height="16"/>
			<rect x="448.004" y="16" width="16" height="16"/>
			<rect x="368.004" y="32" width="16" height="16"/>
			<rect x="384.004" y="48" width="16" height="16"/>
			<rect x="368.004" y="64" width="16" height="16"/>
			<rect x="352.004" y="48" width="16" height="16"/>
			<rect x="448.004" y="136" width="16" height="16"/>
			<rect x="464.004" y="152" width="16" height="16"/>
			<rect x="448.004" y="168" width="16" height="16"/>
			<rect x="432.004" y="152" width="16" height="16"/>
			<rect x="64.004" y="24" width="16" height="16"/>
			<rect x="80.004" y="40" width="16" height="16"/>
			<rect x="64.004" y="56" width="16" height="16"/>
			<rect x="48.004" y="40" width="16" height="16"/>
			<rect x="16.004" y="160" width="16" height="16"/>
			<rect x="32.004" y="176" width="16" height="16"/>
			<rect x="16.004" y="192" width="16" height="16"/>
			<rect x="0.004" y="176" width="16" height="16"/>
		</g>
	</g>
</g>
<g>
</g>
<g>
</g>
<g>
</g>
<g>
</g>
<g>
</g>
<g>
</g>
<g>
</g>
<g>
</g>
<g>
</g>
<g>
</g>
<g>
</g>
<g>
</g>
<g>
</g>
<g>
</g>
<g>
</g>
</svg>
