<?xml version="1.0" encoding="iso-8859-1"?>
<!-- Generator: Adobe Illustrator 19.0.0, SVG Export Plug-In . SVG Version: 6.00 Build 0)  -->
<svg version="1.1" id="Layer_1" xmlns="http://www.w3.org/2000/svg" xmlns:xlink="http://www.w3.org/1999/xlink" x="0px" y="0px"
	 viewBox="0 0 502 502" style="enable-background:new 0 0 502 502;" xml:space="preserve">
<g>
	<polygon style="fill:#50A5DC;" points="80.366,152.484 251,53.968 421.635,152.484 421.635,349.516 251,448.032 80.366,349.516 	
		"/>
	<g>
		<path d="M37.289,139.16l9.541,5.508c1.575,0.909,3.293,1.342,4.99,1.342c3.456,0,6.818-1.794,8.67-5.002
			c2.761-4.783,1.122-10.899-3.661-13.66l-9.541-5.508c-4.781-2.761-10.898-1.122-13.66,3.66
			C30.866,130.283,32.505,136.399,37.289,139.16z"/>
		<path d="M464.712,362.84l-33.078-19.097V158.258l33.078-19.097c4.783-2.762,6.422-8.877,3.66-13.66
			c-2.761-4.782-8.878-6.423-13.66-3.66l-33.078,19.097L261,48.194V10c0-5.522-4.477-10-10-10s-10,4.478-10,10v38.194
			l-165.634,95.63c-3.094,1.786-5,5.088-5,8.66v191.258L37.288,362.84c-4.783,2.762-6.422,8.877-3.66,13.66
			c1.852,3.208,5.213,5.002,8.669,5.002c1.696,0,3.416-0.433,4.991-1.342l33.078-19.097L241,453.806V492c0,5.522,4.477,10,10,10
			c5.523,0,10-4.478,10-10v-38.194l160.634-92.743l33.078,19.097c1.575,0.909,3.294,1.342,4.991,1.342
			c3.456,0,6.817-1.794,8.669-5.002C471.134,371.717,469.495,365.602,464.712,362.84z M401.634,152.484l-45.093,26.034
			c-4.783,2.762-6.422,8.877-3.66,13.66c1.852,3.208,5.213,5.002,8.669,5.002c1.696,0,3.416-0.433,4.991-1.342l45.093-26.034
			v162.391l-70.557-40.736v-86.692c0-3.572-1.906-6.874-5-8.66L261,152.761V71.288L401.634,152.484z M251,284.818
			c-5.523,0-10,4.478-10,10v31.327l-50.077-28.913L251,262.547l60.077,34.686L261,326.145v-31.327
			C261,289.296,256.523,284.818,251,284.818z M241,233.68l-50.077-28.912L241,175.855V233.68z M231,251l-50.078,28.913v-57.825
			L231,251z M271,251l26.826-15.488c4.783-2.762,6.422-8.877,3.66-13.66c-2.761-4.783-8.878-6.422-13.66-3.66L261,233.68v-57.825
			l60.078,34.686v69.372L271,251z M90.366,158.258L241,71.288v81.473l-70.077,40.46l-52.355-30.227
			c-4.781-2.76-10.899-1.122-13.66,3.66c-2.762,4.783-1.123,10.898,3.66,13.66l52.354,30.227v80.919l-70.557,40.736L90.366,158.258
			L90.366,158.258z M100.366,349.516l70.557-40.736L241,349.239v81.473L100.366,349.516z M261,430.712v-81.473l70.077-40.46
			l70.557,40.736L261,430.712z"/>
	</g>
</g>
<g>
</g>
<g>
</g>
<g>
</g>
<g>
</g>
<g>
</g>
<g>
</g>
<g>
</g>
<g>
</g>
<g>
</g>
<g>
</g>
<g>
</g>
<g>
</g>
<g>
</g>
<g>
</g>
<g>
</g>
</svg>
